<svg width="23" height="19" viewBox="0 0 23 19" fill="none" xmlns="http://www.w3.org/2000/svg">
<path d="M22.099 16.2448C22.099 16.7559 21.896 17.246 21.5346 17.6074C21.1732 17.9688 20.6831 18.1719 20.172 18.1719H2.82821C2.31711 18.1719 1.82695 17.9688 1.46555 17.6074C1.10415 17.246 0.901123 16.7559 0.901123 16.2448V5.64583C0.901123 5.13474 1.10415 4.64458 1.46555 4.28318C1.82695 3.92178 2.31711 3.71875 2.82821 3.71875H6.68237L8.60946 0.828125H14.3907L16.3178 3.71875H20.172C20.6831 3.71875 21.1732 3.92178 21.5346 4.28318C21.896 4.64458 22.099 5.13474 22.099 5.64583V16.2448Z" stroke="#666666" stroke-width="1.5" stroke-linecap="round" stroke-linejoin="round"/>
<path d="M11.5001 14.3177C13.6287 14.3177 15.3542 12.5921 15.3542 10.4635C15.3542 8.33494 13.6287 6.60938 11.5001 6.60938C9.37148 6.60938 7.64592 8.33494 7.64592 10.4635C7.64592 12.5921 9.37148 14.3177 11.5001 14.3177Z" stroke="#666666" stroke-width="1.5" stroke-linecap="round" stroke-linejoin="round"/>
</svg>
