<svg width="20" height="18" viewBox="0 0 20 18" fill="none" xmlns="http://www.w3.org/2000/svg">
<path d="M18.1034 2.0029C17.6352 1.53448 17.0793 1.16291 16.4674 0.909391C15.8556 0.655876 15.1998 0.525391 14.5375 0.525391C13.8752 0.525391 13.2195 0.655876 12.6076 0.909391C11.9958 1.16291 11.4399 1.53448 10.9717 2.0029L10 2.97456L9.02836 2.0029C8.08264 1.05718 6.79997 0.525881 5.46253 0.525881C4.12508 0.525881 2.84241 1.05718 1.89669 2.0029C0.950976 2.94862 0.419678 4.23128 0.419678 5.56873C0.419678 6.90618 0.950976 8.18885 1.89669 9.13456L10 17.2379L18.1034 9.13456C18.5718 8.66637 18.9433 8.11048 19.1969 7.49864C19.4504 6.8868 19.5809 6.23101 19.5809 5.56873C19.5809 4.90645 19.4504 4.25066 19.1969 3.63882C18.9433 3.02698 18.5718 2.47109 18.1034 2.0029Z" fill="#EB1C24"/>
</svg>
