<svg width="22" height="18" viewBox="0 0 22 18" fill="none" xmlns="http://www.w3.org/2000/svg">
<path d="M19.1034 2.0029C18.6352 1.53448 18.0793 1.16291 17.4674 0.909391C16.8556 0.655876 16.1998 0.525391 15.5375 0.525391C14.8752 0.525391 14.2195 0.655876 13.6076 0.909391C12.9958 1.16291 12.4399 1.53448 11.9717 2.0029L11 2.97456L10.0284 2.0029C9.08264 1.05718 7.79997 0.525881 6.46253 0.525881C5.12508 0.525881 3.84241 1.05718 2.89669 2.0029C1.95098 2.94862 1.41968 4.23128 1.41968 5.56873C1.41968 6.90618 1.95098 8.18885 2.89669 9.13456L11 17.2379L19.1034 9.13456C19.5718 8.66637 19.9433 8.11048 20.1969 7.49864C20.4504 6.8868 20.5809 6.23101 20.5809 5.56873C20.5809 4.90645 20.4504 4.25066 20.1969 3.63882C19.9433 3.02698 19.5718 2.47109 19.1034 2.0029Z" stroke="#CCCCCC" stroke-linecap="round" stroke-linejoin="round"/>
</svg>
