<svg width="16" height="16" viewBox="0 0 16 16" fill="none" xmlns="http://www.w3.org/2000/svg">
<path d="M0 8C0 7.66588 0.119779 7.37904 0.359338 7.13948C0.598897 6.89992 0.885737 6.78014 1.21986 6.78014H6.7896V1.21986C6.7896 0.885737 6.90623 0.598897 7.13948 0.359338C7.37273 0.119779 7.65957 0 8 0C8.33412 0 8.62096 0.119779 8.86052 0.359338C9.10008 0.598897 9.21986 0.885737 9.21986 1.21986V6.78014H14.7896C15.1174 6.78014 15.4011 6.89992 15.6407 7.13948C15.8802 7.37904 16 7.66588 16 8C16 8.34043 15.8802 8.63042 15.6407 8.86998C15.4011 9.10323 15.1174 9.21986 14.7896 9.21986H9.21986V14.7896C9.21986 15.1174 9.10008 15.4011 8.86052 15.6407C8.62096 15.8802 8.33412 16 8 16C7.65957 16 7.37273 15.8802 7.13948 15.6407C6.90623 15.4011 6.7896 15.1174 6.7896 14.7896V9.21986H1.21986C0.885737 9.21986 0.598897 9.10323 0.359338 8.86998C0.119779 8.63042 0 8.34043 0 8Z" fill="#2E2E2E"/>
</svg>
