<svg width="19" height="19" viewBox="0 0 19 19" fill="none" xmlns="http://www.w3.org/2000/svg">
<path d="M5.125 8.625V5.125C5.125 3.96468 5.58594 2.85188 6.40641 2.03141C7.22688 1.21094 8.33968 0.75 9.5 0.75C10.6603 0.75 11.7731 1.21094 12.5936 2.03141C13.4141 2.85188 13.875 3.96468 13.875 5.125V8.625M3.375 8.625H15.625C16.5915 8.625 17.375 9.4085 17.375 10.375V16.5C17.375 17.4665 16.5915 18.25 15.625 18.25H3.375C2.4085 18.25 1.625 17.4665 1.625 16.5V10.375C1.625 9.4085 2.4085 8.625 3.375 8.625Z" stroke="#2E2E2E" stroke-width="1.5" stroke-linecap="round" stroke-linejoin="round"/>
</svg>
