<svg width="20" height="20" viewBox="0 0 20 20" fill="none" xmlns="http://www.w3.org/2000/svg">
<path d="M4.36242 14.6757C5.14159 14.0798 6.01242 13.61 6.97492 13.2663C7.93742 12.9225 8.94575 12.7507 9.99992 12.7507C11.0541 12.7507 12.0624 12.9225 13.0249 13.2663C13.9874 13.61 14.8583 14.0798 15.6374 14.6757C16.1721 14.0493 16.5885 13.3388 16.8864 12.5444C17.1843 11.75 17.3333 10.902 17.3333 10.0007C17.3333 7.96871 16.619 6.2385 15.1905 4.81003C13.7621 3.38155 12.0319 2.66732 9.99992 2.66732C7.96797 2.66732 6.23777 3.38155 4.80929 4.81003C3.38082 6.2385 2.66659 7.96871 2.66659 10.0007C2.66659 10.902 2.81554 11.75 3.11346 12.5444C3.41138 13.3388 3.8277 14.0493 4.36242 14.6757ZM9.99992 10.9173C9.09853 10.9173 8.33846 10.6079 7.71971 9.98919C7.10096 9.37044 6.79159 8.61037 6.79159 7.70898C6.79159 6.8076 7.10096 6.04753 7.71971 5.42878C8.33846 4.81003 9.09853 4.50065 9.99992 4.50065C10.9013 4.50065 11.6614 4.81003 12.2801 5.42878C12.8989 6.04753 13.2083 6.8076 13.2083 7.70898C13.2083 8.61037 12.8989 9.37044 12.2801 9.98919C11.6614 10.6079 10.9013 10.9173 9.99992 10.9173ZM9.99992 19.1673C8.73186 19.1673 7.5402 18.9267 6.42492 18.4454C5.30964 17.9642 4.3395 17.3111 3.5145 16.4861C2.6895 15.6611 2.03638 14.6909 1.55513 13.5757C1.07388 12.4604 0.833252 11.2687 0.833252 10.0007C0.833252 8.7326 1.07388 7.54093 1.55513 6.42565C2.03638 5.31037 2.6895 4.34023 3.5145 3.51523C4.3395 2.69023 5.30964 2.03711 6.42492 1.55586C7.5402 1.07461 8.73186 0.833984 9.99992 0.833984C11.268 0.833984 12.4596 1.07461 13.5749 1.55586C14.6902 2.03711 15.6603 2.69023 16.4853 3.51523C17.3103 4.34023 17.9635 5.31037 18.4447 6.42565C18.926 7.54093 19.1666 8.7326 19.1666 10.0007C19.1666 11.2687 18.926 12.4604 18.4447 13.5757C17.9635 14.6909 17.3103 15.6611 16.4853 16.4861C15.6603 17.3111 14.6902 17.9642 13.5749 18.4454C12.4596 18.9267 11.268 19.1673 9.99992 19.1673Z" fill="#2E2E2E"/>
</svg>
