<svg width="20" height="20" viewBox="0 0 20 20" fill="none" xmlns="http://www.w3.org/2000/svg">
<path d="M5.83335 9.1665L9.16669 1.6665C9.82973 1.6665 10.4656 1.9299 10.9345 2.39874C11.4033 2.86758 11.6667 3.50346 11.6667 4.1665V7.49984H16.3834C16.6249 7.4971 16.8642 7.54692 17.0847 7.64585C17.3051 7.74478 17.5014 7.89045 17.6599 8.07277C17.8184 8.25508 17.9354 8.46969 18.0028 8.70171C18.0702 8.93374 18.0863 9.17763 18.05 9.4165L16.9 16.9165C16.8398 17.3139 16.6379 17.6762 16.3316 17.9365C16.0253 18.1968 15.6353 18.3377 15.2334 18.3332H5.83335M5.83335 9.1665V18.3332M5.83335 9.1665H3.33335C2.89133 9.1665 2.4674 9.3421 2.15484 9.65466C1.84228 9.96722 1.66669 10.3911 1.66669 10.8332V16.6665C1.66669 17.1085 1.84228 17.5325 2.15484 17.845C2.4674 18.1576 2.89133 18.3332 3.33335 18.3332H5.83335" stroke="#A9A9A9" stroke-width="1.5" stroke-linecap="round" stroke-linejoin="round"/>
</svg>
