<svg width="20" height="20" viewBox="0 0 20 20" fill="none" xmlns="http://www.w3.org/2000/svg">
<path d="M11.6666 7.49984V4.1665C11.6666 3.50346 11.4032 2.86758 10.9344 2.39874C10.4656 1.9299 9.82967 1.6665 9.16663 1.6665L5.83329 9.1665V18.3332H15.2333C15.6352 18.3377 16.0253 18.1968 16.3315 17.9365C16.6378 17.6762 16.8397 17.3139 16.9 16.9165L18.05 9.4165C18.0862 9.17763 18.0701 8.93374 18.0027 8.70171C17.9354 8.46969 17.8184 8.25508 17.6598 8.07277C17.5013 7.89045 17.305 7.74478 17.0846 7.64585C16.8642 7.54692 16.6249 7.4971 16.3833 7.49984H11.6666ZM5.83329 18.3332H3.33329C2.89127 18.3332 2.46734 18.1576 2.15478 17.845C1.84222 17.5325 1.66663 17.1085 1.66663 16.6665V10.8332C1.66663 10.3911 1.84222 9.96722 2.15478 9.65466C2.46734 9.3421 2.89127 9.1665 3.33329 9.1665H5.83329" fill="#A9A9A9"/>
<path d="M5.83329 9.1665L9.16663 1.6665C9.82967 1.6665 10.4656 1.9299 10.9344 2.39874C11.4032 2.86758 11.6666 3.50346 11.6666 4.1665V7.49984H16.3833C16.6249 7.4971 16.8642 7.54692 17.0846 7.64585C17.305 7.74478 17.5013 7.89045 17.6598 8.07277C17.8184 8.25508 17.9354 8.46969 18.0027 8.70171C18.0701 8.93374 18.0862 9.17763 18.05 9.4165L16.9 16.9165C16.8397 17.3139 16.6378 17.6762 16.3315 17.9365C16.0253 18.1968 15.6352 18.3377 15.2333 18.3332H5.83329M5.83329 9.1665V18.3332M5.83329 9.1665H3.33329C2.89127 9.1665 2.46734 9.3421 2.15478 9.65466C1.84222 9.96722 1.66663 10.3911 1.66663 10.8332V16.6665C1.66663 17.1085 1.84222 17.5325 2.15478 17.845C2.46734 18.1576 2.89127 18.3332 3.33329 18.3332H5.83329" stroke="#F5F5F8" stroke-width="1.5" stroke-linecap="round" stroke-linejoin="round"/>
</svg>
