<svg width="20" height="20" viewBox="0 0 20 20" fill="none" xmlns="http://www.w3.org/2000/svg">
<path d="M14.1667 10.8335L10.8334 18.3335C10.1703 18.3335 9.53443 18.0701 9.06559 17.6012C8.59675 17.1324 8.33336 16.4965 8.33336 15.8335V12.5001H3.61669C3.3751 12.5029 3.13581 12.4531 2.91538 12.3541C2.69496 12.2552 2.49868 12.1095 2.34014 11.9272C2.18161 11.7449 2.0646 11.5303 1.99724 11.2983C1.92988 11.0662 1.91377 10.8223 1.95003 10.5835L3.10003 3.08347C3.16029 2.68605 3.36216 2.3238 3.66844 2.06347C3.97471 1.80313 4.36475 1.66226 4.76669 1.66681H14.1667M14.1667 10.8335V1.66681M14.1667 10.8335H16.3917C16.8633 10.8418 17.3216 10.6767 17.6795 10.3695C18.0375 10.0622 18.2701 9.63426 18.3334 9.16681V3.33347C18.2701 2.86602 18.0375 2.43806 17.6795 2.13082C17.3216 1.82358 16.8633 1.65846 16.3917 1.66681H14.1667" stroke="#A9A9A9" stroke-width="1.5" stroke-linecap="round" stroke-linejoin="round"/>
</svg>
